<svg xmlns="http://www.w3.org/2000/svg" width="53" height="12" viewBox="0 0 53 12"><g fill="#777"><path d="M17.09 7.144h-.002l-.836.11v-1.3h1.072v-1.19h-.563l.21-2.396h.237V1.176h-1.002v-.88h-1.25v.88H13.85v1.192h.22l.207 2.396h-.584v1.19h1.196V7.29c0 .038 0 .087-.003.142l-1.18.153.144 1.265.943-.186c-.11.92-.33 2.058-.763 2.775l1.235.53c.632-1.048.86-2.568.944-3.59l.79-.156.09-1.08zm-1.284-2.38h-.575l-.125-2.396h.827l-.126 2.396zM44.19 1.98h-.003L42.15.275l-.98.68L43 2.985M11.727.456H.065v1.246h11.662M31.666 2.25L30.403 0l-1.487.7 1.54 2M9.707 7.8l.003.002h1.01V2.855H1.074v4.947h1.01l.756 2.627H0v1.23h11.792v-1.23h-2.84l.755-2.63zM2.78 6.57V4.1h6.23v2.47H2.78zm4.47 3.862H4.54L3.785 7.8H8.01l-.76 2.63v.002zM51.292 5.75h-.002l1.262.2.298-1.66V3.088h-3.478v-1.01h3.2V.876h-3.2v-.68h-1.32v.68h-3.227v1.202h3.228v1.01H44.55V4.29h7.008M25.354 2.367h.42v-1.19h-1.18v-.88h-1.302v.88H22.05l-.768-.934-3.816.8v.193h-.002v4.07c0 2.544-.046 3.982-1.04 6.366l1.04.297c1.07-2.564 1.093-4.06 1.093-6.665v-3.39l.54-.08v8.65l-1.043.028.212 1.3 2.62-.413-.19-.953-.643.016V1.69l.594-.088v3.704c0 1.21-.03 4.024.822 6.576l1.093-.22c-.823-2.478-.823-5.195-.823-6.356V1.438l.267-.04v.97h.446l.207 2.396h-.653v1.19h1.257V7.43h-1.1v1.193h1.1v3.2h1.357v-3.2h1.076v-1.19H24.62v-1.48h1.246v-1.19h-.72l.208-2.396zM24.19 4.764h-.574l-.127-2.396h.826l-.127 2.396zM47.85 6.378l.378-1.137-2.292-.742-.25.847M52.79 10.74v-.003l-3.237-1.982h3.22V7.55h-2.91c.14-.607.16-1.098.16-1.324v-1.36h-1.338v1.36c0 .28-.037.767-.2 1.325H47.26l.284-.85-2.29-.745-.25.847 1.57.75h-1.887v1.205h3.258c-.533.83-1.44 1.61-2.974 1.96l.28 1.235c1.755-.392 2.865-1.22 3.57-2.132l3.41 2.157.04.025.73-1.133-.21-.13zM43.592 3.49H40.91v1.257h1.362v5.512l-.41.346.61 1.306 1.983-1.92V8.408l-.863.732M32.456 1.868H37.524v8.27c0 .384-.332.384-.485.384h-.61l.218 1.275h1.064c.32 0 1.294 0 1.294-1.172V.643h-6.55v1.225zM27.94 2.81h1.48v9.145h-1.48zM36.634 8.99l-.004-.002s-.443.268-1.128.478c-.228.07-.422-.003-.422-.306V7.506h1.287v-3.46h-1.46l.916-1.402-1.026-.602-1.31 2.004H32.31l.68-.44-.744-1.22-1.103.595.817 1.067h-1.5v3.46h1.034c.012 1.255-.178 1.958-1.348 2.612l.775 1.143c1.6-.94 1.946-2.137 1.998-3.756h.915v1.687c-.008 1.402.968 1.865 1.716 1.524.36-.164 1.247-.496 1.247-.496l-.163-1.232zm-1.77-2.615H31.96V5.19h2.904v1.185z"/></g></svg>